<svg width="209" height="43" viewBox="0 0 209 43" fill="none" xmlns="http://www.w3.org/2000/svg">
  <path d="M16.8662 38.9809L0 19.4905L37.2894 30.2993V38.9809H16.8662Z" fill="#8888F8"/>
  <path d="M16.8662 0L0 19.4905L37.2894 8.68159V0H16.8662Z" fill="#8888F8"/>
  <path d="M64.7109 24.4918L63.4254 20.8477L76.1813 8.66867H81.6199L64.7109 24.4918ZM60.805 32.4513V2.07186H65.2548V32.4513H60.805ZM77.3679 32.4513L67.2324 19.7928L70.0506 16.9638L83.0042 32.4513H77.3679Z" fill="white"/>
  <path d="M95.5027 33.0266C93.0966 33.0266 90.9377 32.5152 89.0259 31.4923C87.1142 30.4374 85.6145 28.983 84.5268 27.129C83.4391 25.243 82.8952 23.0533 82.8952 20.56C82.8952 18.0347 83.4391 15.845 84.5268 13.991C85.6474 12.137 87.1636 10.6985 89.0754 9.67559C91.0201 8.62072 93.1955 8.09328 95.6016 8.09328C98.0078 8.09328 100.167 8.62072 102.078 9.67559C103.99 10.6985 105.49 12.137 106.578 13.991C107.665 15.845 108.209 18.0347 108.209 20.56C108.209 23.0533 107.649 25.243 106.528 27.129C105.44 28.983 103.941 30.4374 102.029 31.4923C100.117 32.5152 97.9419 33.0266 95.5027 33.0266ZM95.5027 29.3346C96.986 29.3346 98.3374 29.0149 99.5569 28.3756C100.809 27.7043 101.798 26.7134 102.523 25.4028C103.282 24.0922 103.661 22.4779 103.661 20.56C103.661 18.61 103.282 16.9958 102.523 15.7171C101.798 14.4065 100.826 13.4316 99.6064 12.7923C98.3868 12.121 97.0519 11.7853 95.6016 11.7853C94.1513 11.7853 92.7999 12.121 91.5474 12.7923C90.3279 13.4635 89.339 14.4385 88.5809 15.7171C87.8228 16.9958 87.4438 18.61 87.4438 20.56C87.4438 22.4779 87.8064 24.0922 88.5315 25.4028C89.2896 26.7134 90.2784 27.7043 91.498 28.3756C92.7175 29.0149 94.0525 29.3346 95.5027 29.3346Z" fill="white"/>
  <path d="M123.001 33.0266C120.562 33.0266 118.436 32.4832 116.623 31.3964C114.81 30.3096 113.393 28.8231 112.371 26.9372C111.349 25.0512 110.838 22.9095 110.838 20.512C110.838 18.1146 111.349 15.9888 112.371 14.1348C113.393 12.2488 114.81 10.7784 116.623 9.72354C118.469 8.6367 120.594 8.09328 123.001 8.09328C125.011 8.09328 126.775 8.49286 128.291 9.292C129.84 10.0592 131.027 11.146 131.851 12.5525V2.07186H136.3V32.4513H133.071L131.851 28.5674C131.06 29.7182 129.939 30.7571 128.489 31.6841C127.071 32.5791 125.242 33.0266 123.001 33.0266ZM123.594 29.2866C125.209 29.2866 126.626 28.919 127.846 28.1838C129.065 27.4486 130.021 26.4257 130.713 25.1151C131.406 23.8045 131.752 22.2861 131.752 20.56C131.752 18.8338 131.406 17.3154 130.713 16.0048C130.021 14.6942 129.065 13.6713 127.846 12.9361C126.626 12.2009 125.209 11.8333 123.594 11.8333C122.012 11.8333 120.594 12.2009 119.342 12.9361C118.089 13.6713 117.117 14.6942 116.425 16.0048C115.733 17.2835 115.387 18.8018 115.387 20.56C115.387 22.2861 115.733 23.8045 116.425 25.1151C117.117 26.4257 118.089 27.4486 119.342 28.1838C120.594 28.919 122.012 29.2866 123.594 29.2866Z" fill="white"/>
  <path d="M151.687 33.0266C149.314 33.0266 147.205 32.5152 145.359 31.4923C143.546 30.4374 142.112 28.983 141.057 27.129C140.036 25.2749 139.525 23.1013 139.525 20.6079C139.525 18.0826 140.036 15.893 141.057 14.0389C142.079 12.1529 143.513 10.6985 145.359 9.67559C147.205 8.62072 149.331 8.09328 151.737 8.09328C154.143 8.09328 156.203 8.62072 157.917 9.67559C159.664 10.6985 160.999 12.057 161.922 13.7512C162.878 15.4454 163.355 17.2994 163.355 19.3133C163.355 19.633 163.355 19.9846 163.355 20.3682C163.355 20.7198 163.339 21.1034 163.306 21.5189H142.837V18.3543H158.955C158.856 16.2765 158.115 14.6463 156.73 13.4635C155.379 12.2808 153.682 11.6894 151.638 11.6894C150.254 11.6894 148.968 11.9931 147.781 12.6005C146.595 13.1759 145.639 14.0549 144.914 15.2376C144.222 16.3884 143.876 17.8269 143.876 19.553V20.8477C143.876 22.7336 144.238 24.316 144.963 25.5946C145.688 26.8732 146.644 27.8322 147.831 28.4715C149.018 29.1108 150.287 29.4305 151.638 29.4305C153.286 29.4305 154.67 29.0629 155.791 28.3277C156.912 27.5925 157.736 26.5855 158.263 25.3069H162.663C162.235 26.7454 161.526 28.056 160.537 29.2387C159.548 30.4214 158.296 31.3484 156.78 32.0197C155.297 32.691 153.599 33.0266 151.687 33.0266Z" fill="white"/>
  <path d="M175.564 32.4513C174.179 32.4513 173.009 32.2914 172.053 31.9718C171.097 31.6202 170.372 30.9808 169.878 30.0538C169.416 29.1268 169.186 27.8162 169.186 26.122V12.3128H164.934V8.66867H169.186L170.101 2.86686H173.635V8.66867H180.557V12.3128H173.635V25.4507C173.635 26.4737 173.718 27.2248 173.883 27.7043C174.047 28.1838 174.394 28.4875 174.921 28.6154C175.448 28.7113 176.206 28.7592 177.195 28.7592H180.211V32.4513H175.564Z" fill="white"/>
  <path d="M183.389 43V39.4518H188.383C188.844 39.4518 189.223 39.3719 189.52 39.212C189.85 39.0842 190.163 38.7805 190.459 38.301C190.756 37.8215 191.119 37.1023 191.547 36.1433L194.316 30.2456L193.92 32.4992L183.192 8.66867H187.987L195.947 26.9372L204.353 8.66867H209L195.7 37.2941C195.107 38.5727 194.596 39.5956 194.168 40.3628C193.739 41.13 193.327 41.6894 192.932 42.041C192.569 42.4246 192.141 42.6803 191.646 42.8082C191.185 42.9361 190.575 43 189.817 43H183.389Z" fill="white"/>
</svg>
